<svg width="64" height="30" viewBox="0 0 64 30" fill="none" xmlns="http://www.w3.org/2000/svg">
<rect x="7.49606" width="56.2189" height="29.9834" rx="4.99724" fill="#FF7512"/>
<path d="M3.05176e-05 14.6065L7.49589 7.1106V22.1023L3.05176e-05 14.6065Z" fill="#FF7512"/>
<path d="M22.5197 17.368H19.1597V15.856H22.5197V17.368ZM26.899 20.168C26.0777 20.168 25.3497 20.0327 24.715 19.762C24.0803 19.482 23.581 19.118 23.217 18.67L24.253 17.34C24.5703 17.6667 24.9623 17.928 25.429 18.124C25.8957 18.3107 26.3623 18.404 26.829 18.404C27.389 18.404 27.823 18.2967 28.131 18.082C28.439 17.858 28.593 17.5687 28.593 17.214C28.593 16.8407 28.4437 16.57 28.145 16.402C27.8463 16.2247 27.3703 16.136 26.717 16.136C26.129 16.136 25.7417 16.1453 25.555 16.164V14.372C25.667 14.3813 26.0543 14.386 26.717 14.386C27.865 14.386 28.439 14.0547 28.439 13.392C28.439 13.0373 28.2757 12.7667 27.949 12.58C27.6317 12.384 27.2163 12.286 26.703 12.286C25.7977 12.286 25.009 12.608 24.337 13.252L23.343 12.006C24.2203 11.0167 25.4103 10.522 26.913 10.522C28.005 10.522 28.8637 10.7507 29.489 11.208C30.1237 11.6653 30.441 12.2813 30.441 13.056C30.441 13.616 30.2403 14.0873 29.839 14.47C29.4377 14.8433 28.957 15.0813 28.397 15.184C28.9477 15.24 29.447 15.4687 29.895 15.87C30.3523 16.262 30.581 16.78 30.581 17.424C30.581 18.236 30.245 18.8987 29.573 19.412C28.901 19.916 28.0097 20.168 26.899 20.168ZM37.6638 19.454C37.0665 19.93 36.3431 20.168 35.4938 20.168C34.6445 20.168 33.9165 19.93 33.3098 19.454C32.7125 18.9687 32.2831 18.3713 32.0218 17.662C31.7605 16.9527 31.6298 16.178 31.6298 15.338C31.6298 14.498 31.7605 13.7233 32.0218 13.014C32.2831 12.3047 32.7125 11.712 33.3098 11.236C33.9165 10.76 34.6445 10.522 35.4938 10.522C36.3431 10.522 37.0665 10.76 37.6638 11.236C38.2611 11.712 38.6905 12.3047 38.9518 13.014C39.2225 13.7233 39.3578 14.498 39.3578 15.338C39.3578 16.178 39.2225 16.9527 38.9518 17.662C38.6905 18.3713 38.2611 18.9687 37.6638 19.454ZM34.0938 17.564C34.3925 18.124 34.8591 18.404 35.4938 18.404C36.1285 18.404 36.5905 18.124 36.8798 17.564C37.1785 17.004 37.3278 16.262 37.3278 15.338C37.3278 14.414 37.1785 13.6767 36.8798 13.126C36.5905 12.566 36.1285 12.286 35.4938 12.286C34.8591 12.286 34.3925 12.566 34.0938 13.126C33.7951 13.6767 33.6458 14.414 33.6458 15.338C33.6458 16.262 33.7951 17.004 34.0938 17.564ZM42.5654 15.17C41.8654 15.17 41.2961 14.9553 40.8574 14.526C40.4188 14.0873 40.1994 13.5367 40.1994 12.874C40.1994 12.202 40.4188 11.642 40.8574 11.194C41.2961 10.746 41.8654 10.522 42.5654 10.522C43.2748 10.522 43.8488 10.746 44.2874 11.194C44.7261 11.642 44.9454 12.202 44.9454 12.874C44.9454 13.5367 44.7261 14.0873 44.2874 14.526C43.8488 14.9553 43.2748 15.17 42.5654 15.17ZM42.7054 20H41.6554L47.6194 10.662H48.6834L42.7054 20ZM49.4114 19.51C48.9728 19.9487 48.4034 20.168 47.7034 20.168C47.0034 20.168 46.4341 19.9487 45.9954 19.51C45.5568 19.0713 45.3374 18.5207 45.3374 17.858C45.3374 17.186 45.5568 16.626 45.9954 16.178C46.4341 15.73 47.0034 15.506 47.7034 15.506C48.4034 15.506 48.9728 15.73 49.4114 16.178C49.8594 16.626 50.0834 17.186 50.0834 17.858C50.0834 18.5207 49.8594 19.0713 49.4114 19.51ZM42.5654 14.078C42.8921 14.078 43.1581 13.9707 43.3634 13.756C43.5688 13.532 43.6714 13.238 43.6714 12.874C43.6714 12.4913 43.5688 12.188 43.3634 11.964C43.1581 11.74 42.8921 11.628 42.5654 11.628C42.2388 11.628 41.9728 11.74 41.7674 11.964C41.5621 12.188 41.4594 12.4913 41.4594 12.874C41.4594 13.2287 41.5621 13.518 41.7674 13.742C41.9821 13.966 42.2481 14.078 42.5654 14.078ZM46.9054 18.754C47.1108 18.9687 47.3768 19.076 47.7034 19.076C48.0301 19.076 48.2961 18.9687 48.5014 18.754C48.7161 18.53 48.8234 18.2313 48.8234 17.858C48.8234 17.4753 48.7161 17.172 48.5014 16.948C48.2961 16.724 48.0301 16.612 47.7034 16.612C47.3768 16.612 47.1108 16.724 46.9054 16.948C46.7001 17.172 46.5974 17.4753 46.5974 17.858C46.5974 18.2313 46.7001 18.53 46.9054 18.754Z" fill="white"/>
</svg>
